<mxfile host="app.diagrams.net" agent="Mozilla/5.0 (Windows NT 10.0; Win64; x64) AppleWebKit/537.36 (KHTML, like Gecko) Chrome/136.0.0.0 Safari/537.36" version="27.0.9">
  <diagram name="ClassDiagram" id="W0ArF9N_o6pEox8jllaf">
    <mxGraphModel dx="1425" dy="784" grid="1" gridSize="10" guides="1" tooltips="1" connect="1" arrows="1" fold="1" page="1" pageScale="1" pageWidth="827" pageHeight="1169" math="0" shadow="0">
      <root>
        <mxCell id="0" />
        <mxCell id="1" parent="0" />
        <mxCell id="B4PtMZzH9SgnP9xTAy4K-18" value="&amp;lt;b&amp;gt;AbstractUser&amp;lt;/b&amp;gt;&lt;br/&gt;&lt;br/&gt;+ login(): void" style="shape=umlClass;whiteSpace=wrap;html=1;" vertex="1" parent="1">
          <mxGeometry x="470" y="1010" width="180" height="160" as="geometry" />
        </mxCell>
        <mxCell id="B4PtMZzH9SgnP9xTAy4K-19" value="&amp;lt;b&amp;gt;User&amp;lt;/b&amp;gt;&lt;br/&gt;+ id: int&lt;br/&gt;+ email: string&lt;br/&gt;+ password: string&lt;br/&gt;+ username: string&lt;br/&gt;+ name: string&lt;br/&gt;+ age: int&lt;br/&gt;+ gender: string&lt;br/&gt;+ phone: string&lt;br/&gt;+ save(): void&lt;br/&gt;+ __str__(): string" style="shape=umlClass;whiteSpace=wrap;html=1;" vertex="1" parent="1">
          <mxGeometry x="470" y="1210" width="180" height="160" as="geometry" />
        </mxCell>
        <mxCell id="B4PtMZzH9SgnP9xTAy4K-20" value="&amp;lt;b&amp;gt;Income&amp;lt;/b&amp;gt;&lt;br/&gt;+ id: int&lt;br/&gt;+ date: date&lt;br/&gt;+ amount: int&lt;br/&gt;+ source: string&lt;br/&gt;+ emotion: string&lt;br/&gt;- user: FK → User" style="shape=umlClass;whiteSpace=wrap;html=1;" vertex="1" parent="1">
          <mxGeometry x="90" y="1210" width="180" height="160" as="geometry" />
        </mxCell>
        <mxCell id="B4PtMZzH9SgnP9xTAy4K-21" value="&amp;lt;b&amp;gt;Expense&amp;lt;/b&amp;gt;&lt;br/&gt;+ id: int&lt;br/&gt;+ date: date&lt;br/&gt;+ amount: int&lt;br/&gt;+ category: string&lt;br/&gt;+ emotion: string&lt;br/&gt;- user: FK → User" style="shape=umlClass;whiteSpace=wrap;html=1;" vertex="1" parent="1">
          <mxGeometry x="850" y="1210" width="180" height="160" as="geometry" />
        </mxCell>
        <mxCell id="B4PtMZzH9SgnP9xTAy4K-22" value="&amp;lt;b&amp;gt;MonthlyBudget&amp;lt;/b&amp;gt;&lt;br/&gt;+ id: int&lt;br/&gt;+ year: int&lt;br/&gt;+ month: int&lt;br/&gt;+ budget: int&lt;br/&gt;- user: FK → User" style="shape=umlClass;whiteSpace=wrap;html=1;" vertex="1" parent="1">
          <mxGeometry x="90" y="1430" width="180" height="160" as="geometry" />
        </mxCell>
        <mxCell id="B4PtMZzH9SgnP9xTAy4K-23" value="&amp;lt;b&amp;gt;FixedExpense&amp;lt;/b&amp;gt;&lt;br/&gt;+ id: int&lt;br/&gt;+ name: string&lt;br/&gt;+ amount: int&lt;br/&gt;+ payment_day: int&lt;br/&gt;- user: FK → User" style="shape=umlClass;whiteSpace=wrap;html=1;" vertex="1" parent="1">
          <mxGeometry x="850" y="1430" width="180" height="160" as="geometry" />
        </mxCell>
        <mxCell id="B4PtMZzH9SgnP9xTAy4K-24" value="&amp;lt;b&amp;gt;Notice&amp;lt;/b&amp;gt;&lt;br/&gt;+ id: int&lt;br/&gt;+ title: string&lt;br/&gt;+ content: text&lt;br/&gt;+ created_at: datetime&lt;br/&gt;+ updated_at: datetime" style="shape=umlClass;whiteSpace=wrap;html=1;" vertex="1" parent="1">
          <mxGeometry x="470" y="1430" width="180" height="160" as="geometry" />
        </mxCell>
        <mxCell id="B4PtMZzH9SgnP9xTAy4K-25" value="user: FK" style="endArrow=block;html=1;" edge="1" parent="1" source="B4PtMZzH9SgnP9xTAy4K-20" target="B4PtMZzH9SgnP9xTAy4K-19">
          <mxGeometry relative="1" as="geometry" />
        </mxCell>
        <mxCell id="B4PtMZzH9SgnP9xTAy4K-26" value="user: FK" style="endArrow=block;html=1;" edge="1" parent="1" source="B4PtMZzH9SgnP9xTAy4K-21" target="B4PtMZzH9SgnP9xTAy4K-19">
          <mxGeometry relative="1" as="geometry" />
        </mxCell>
        <mxCell id="B4PtMZzH9SgnP9xTAy4K-27" value="user: FK" style="endArrow=block;html=1;" edge="1" parent="1" source="B4PtMZzH9SgnP9xTAy4K-22" target="B4PtMZzH9SgnP9xTAy4K-19">
          <mxGeometry relative="1" as="geometry" />
        </mxCell>
        <mxCell id="B4PtMZzH9SgnP9xTAy4K-28" value="user: FK" style="endArrow=block;html=1;" edge="1" parent="1" source="B4PtMZzH9SgnP9xTAy4K-23" target="B4PtMZzH9SgnP9xTAy4K-19">
          <mxGeometry relative="1" as="geometry" />
        </mxCell>
        <mxCell id="B4PtMZzH9SgnP9xTAy4K-29" value="extends" style="endArrow=block;endFill=0;html=1;" edge="1" parent="1" source="B4PtMZzH9SgnP9xTAy4K-19" target="B4PtMZzH9SgnP9xTAy4K-18">
          <mxGeometry relative="1" as="geometry" />
        </mxCell>
      </root>
    </mxGraphModel>
  </diagram>
</mxfile>
